unsigned char q3 = 0b 1101 0110 = 2^7*1 + 2^6*1 + 2^5*0 + 2^4*1 + 2^3*0 + 2^2*1 + 2^1*1 + 2^0*0
q3 = 128 + 64 + 0 + 16 + 0 + 4 + 2 + 0 = 214
decimal number:0xD6
 111
 0101
+0011
------ 1+1 is 10 in binary. Can't go over size of data structure. If we do, we just lose it. 
 1000


/****************
unsigned char song0[] ={0x4d,0x54,0x68,0x64,0x00,0x00,0x00,0x06,0x00,0x01,0x00,0x02,0x01,0x00,0x4d,0x54,0x72,0x6b,
                        0x00,0x00,0x00,0x57,0x00,0xff,0x58,0x04,0x04,0x02,0x18,0x08,0x00,0xff,0x59,0x02,0x00,0x00,
                        0x00,0xff,0x51,0x03,0x09,0xa3,0x19,0x00,0xff,0x03,0x1b,0x54,0x77,0x69,0x6e,0x6b,0x6c,0x65,
                        0x20,0x54,0x77,0x69,0x6e,0x6b,0x6c,0x65,0x20,0x4c,0x69,0x74,0x74,0x6c,0x65,0x20,0x53,0x74,
                        0x61,0x72,0x00,0xff,0x01,0x0b,0x54,0x72,0x61,0x64,0x69,0x74,0x69,0x6f,0x6e,0x61,0x6c,0x00,
                        0xff,0x02,0x0c,0x4a,0x69,0x6d,0x20,0x50,0x61,0x74,0x65,0x72,0x73,0x6f,0x6e,0x01,0xff,0x2f,
                        0x00,0x4d,0x54,0x72,0x6b,0x00,0x00,0x01,0x9a,0x00,0xc0,0x00,0x00,0xb0,0x79,0x00,0x00,0xb0,
                        0x40,0x00,0x00,0xb0,0x0a,0x3f,0x00,0xb0,0x07,0x5f,0x00,0x90,0x3c,0x4d,0x00,0xff,0x03,0x05,
                        0x50,0x69,0x61,0x6e,0x6f,0x81,0x74,0x80,0x3c,0x00,0x0c,0x90,0x3c,0x53,0x81,0x74,0x80,0x3c,
                        0x00,0x0c,0x90,0x43,0x5a,0x81,0x74,0x80,0x43,0x00,0x0c,0x90,0x43,0x57,0x81,0x74,0x80,0x43,
                        0x00,0x0c,0x90,0x45,0x56,0x81,0x74,0x80,0x45,0x00,0x0c,0x90,0x45,0x53,0x81,0x74,0x80,0x45,
                        0x00,0x0c,0x90,0x43,0x51,0x83,0x67,0x80,0x43,0x00,0x19,0x90,0x41,0x50,0x81,0x74,0x80,0x41,
                        0x00,0x0c,0x90,0x41,0x55,0x81,0x74,0x80,0x41,0x00,0x0c,0x90,0x40,0x52,0x81,0x74,0x80,0x40,
                        0x00,0x0c,0x90,0x40,0x54,0x81,0x74,0x80,0x40,0x00,0x0c,0x90,0x3e,0x51,0x81,0x74,0x80,0x3e,
                        0x00,0x0c,0x90,0x3e,0x53,0x81,0x74,0x80,0x3e,0x00,0x0c,0x90,0x3c,0x51,0x83,0x67,0x80,0x3c,
                        0x00,0x19,0x90,0x43,0x5e,0x81,0x74,0x80,0x43,0x00,0x0c,0x90,0x43,0x53,0x81,0x74,0x80,0x43,
                        0x00,0x0c,0x90,0x41,0x51,0x81,0x74,0x80,0x41,0x00,0x0c,0x90,0x41,0x54,0x81,0x74,0x80,0x41,
                        0x00,0x0c,0x90,0x40,0x52,0x81,0x74,0x80,0x40,0x00,0x0c,0x90,0x40,0x54,0x81,0x74,0x80,0x40,
                        0x00,0x0c,0x90,0x3e,0x52,0x83,0x67,0x80,0x3e,0x00,0x19,0x90,0x43,0x5a,0x81,0x74,0x80,0x43,
                        0x00,0x0c,0x90,0x43,0x54,0x81,0x74,0x80,0x43,0x00,0x0c,0x90,0x41,0x54,0x81,0x74,0x80,0x41,
                        0x00,0x0c,0x90,0x41,0x55,0x81,0x74,0x80,0x41,0x00,0x0c,0x90,0x40,0x52,0x81,0x74,0x80,0x40,
                        0x00,0x0c,0x90,0x40,0x52,0x81,0x74,0x80,0x40,0x00,0x0c,0x90,0x3e,0x53,0x83,0x67,0x80,0x3e,
                        0x00,0x19,0x90,0x3c,0x52,0x81,0x74,0x80,0x3c,0x00,0x0c,0x90,0x3c,0x53,0x81,0x74,0x80,0x3c,
                        0x00,0x0c,0x90,0x43,0x5a,0x81,0x74,0x80,0x43,0x00,0x0c,0x90,0x43,0x53,0x81,0x74,0x80,0x43,
                        0x00,0x0c,0x90,0x45,0x57,0x81,0x74,0x80,0x45,0x00,0x0c,0x90,0x45,0x51,0x81,0x74,0x80,0x45,
                        0x00,0x0c,0x90,0x43,0x4f,0x83,0x67,0x80,0x43,0x00,0x19,0x90,0x41,0x51,0x81,0x74,0x80,0x41,
                        0x00,0x0c,0x90,0x41,0x53,0x81,0x74,0x80,0x41,0x00,0x0c,0x90,0x40,0x51,0x81,0x74,0x80,0x40,
                        0x00,0x0c,0x90,0x40,0x54,0x81,0x74,0x80,0x40,0x00,0x0c,0x90,0x3e,0x52,0x81,0x74,0x80,0x3e,
                        0x00,0x0c,0x90,0x3e,0x53,0x81,0x74,0x80,0x3e,0x00,0x0c,0x90,0x3c,0x50,0x83,0x67,0x80,0x3c,
                        0x00,0x01,0xff,0x2f,0x00};


<chunk type> = MTHD
<length>     = 6
<format>     = 1
<ntrks>      = 2
<division>   = 256

